<?xml version="1.0" encoding="UTF-8" standalone="no"?>
<svg xmlns="http://www.w3.org/2000/svg" xmlns:xlink="http://www.w3.org/1999/xlink" version="1.1" width="800" height="200" xml:space="preserve">
  <desc>Created with RAW JAVASCRIPT POWER.</desc>
  <defs></defs>undefined
  
  <path fill="none" stroke="black" d="M 0 -12 L 0 2 M 0 7 L -1 8 L 0 9 L 1 8 L 0 7" transform="translate(60,40)"></path>
  <path fill="none" stroke="black" d="M -4 -12 L -4 -5 M 4 -12 L 4 -5" transform="translate(90,40)"></path>
  <path fill="none" stroke="black" d="M 1 -16 L -6 16 M 7 -16 L 0 16 M -6 -3 L 8 -3 M -7 3 L 7 3" transform="translate(120,40)"></path>
  <path fill="none" stroke="black" d="M -2 -16 L -2 13 M 2 -16 L 2 13 M 7 -9 L 5 -11 L 2 -12 L -2 -12 L -5 -11 L -7 -9 L -7 -7 L -6 -5 L -5 -4 L -3 -3 L 3 -1 L 5 0 L 6 1 L 7 3 L 7 6 L 5 8 L 2 9 L -2 9 L -5 8 L -7 6" transform="translate(150,40)"></path>
  <path fill="none" stroke="black" d="M 9 -12 L -9 9 M -4 -12 L -2 -10 L -2 -8 L -3 -6 L -5 -5 L -7 -5 L -9 -7 L -9 -9 L -8 -11 L -6 -12 L -4 -12 L -2 -11 L 1 -10 L 4 -10 L 7 -11 L 9 -12 M 5 2 L 3 3 L 2 5 L 2 7 L 4 9 L 6 9 L 8 8 L 9 6 L 9 4 L 7 2 L 5 2" transform="translate(180,40)"></path><path fill="none" stroke="black" d="M 10 -3 L 10 -4 L 9 -5 L 8 -5 L 7 -4 L 6 -2 L 4 3 L 2 6 L 0 8 L -2 9 L -6 9 L -8 8 L -9 7 L -10 5 L -10 3 L -9 1 L -8 0 L -1 -4 L 0 -5 L 1 -7 L 1 -9 L 0 -11 L -2 -12 L -4 -11 L -5 -9 L -5 -7 L -4 -4 L -2 -1 L 3 6 L 5 8 L 7 9 L 9 9 L 10 8 L 10 7" transform="translate(210,40)"></path><path fill="none" stroke="black" d="M 0 -10 L -1 -11 L 0 -12 L 1 -11 L 1 -9 L 0 -7 L -1 -6" transform="translate(240,40)"></path>
  <path fill="none" stroke="black" d="M 4 -16 L 2 -14 L 0 -11 L -2 -7 L -3 -2 L -3 2 L -2 7 L 0 11 L 2 14 L 4 16" transform="translate(270,40)"></path><path fill="none" stroke="black" d="M -4 -16 L -2 -14 L 0 -11 L 2 -7 L 3 -2 L 3 2 L 2 7 L 0 11 L -2 14 L -4 16" transform="translate(300,40)"></path><path fill="none" stroke="black" d="M 0 -12 L 0 0 M -5 -9 L 5 -3 M 5 -9 L -5 -3" transform="translate(330,40)"></path><path fill="none" stroke="black" d="M 0 -9 L 0 9 M -9 0 L 9 0" transform="translate(360,40)"></path><path fill="none" stroke="black" d="M 1 8 L 0 9 L -1 8 L 0 7 L 1 8 L 1 10 L 0 12 L -1 13" transform="translate(390,40)"></path><path fill="none" stroke="black" d="M -9 0 L 9 0" transform="translate(420,40)"></path><path fill="none" stroke="black" d="M 0 7 L -1 8 L 0 9 L 1 8 L 0 7" transform="translate(450,40)"></path><path fill="none" stroke="black" d="M 9 -16 L -9 16" transform="translate(480,40)"></path><path fill="none" stroke="black" d="M -1 -12 L -4 -11 L -6 -8 L -7 -3 L -7 0 L -6 5 L -4 8 L -1 9 L 1 9 L 4 8 L 6 5 L 7 0 L 7 -3 L 6 -8 L 4 -11 L 1 -12 L -1 -12" transform="translate(510,40)"></path><path fill="none" stroke="black" d="M -4 -8 L -2 -9 L 1 -12 L 1 9" transform="translate(540,40)"></path><path fill="none" stroke="black" d="M -6 -7 L -6 -8 L -5 -10 L -4 -11 L -2 -12 L 2 -12 L 4 -11 L 5 -10 L 6 -8 L 6 -6 L 5 -4 L 3 -1 L -7 9 L 7 9" transform="translate(570,40)"></path><path fill="none" stroke="black" d="M -5 -12 L 6 -12 L 0 -4 L 3 -4 L 5 -3 L 6 -2 L 7 1 L 7 3 L 6 6 L 4 8 L 1 9 L -2 9 L -5 8 L -6 7 L -7 5" transform="translate(600,40)"></path><path fill="none" stroke="black" d="M 3 -12 L -7 2 L 8 2 M 3 -12 L 3 9" transform="translate(630,40)"></path><path fill="none" stroke="black" d="M 5 -12 L -5 -12 L -6 -3 L -5 -4 L -2 -5 L 1 -5 L 4 -4 L 6 -2 L 7 1 L 7 3 L 6 6 L 4 8 L 1 9 L -2 9 L -5 8 L -6 7 L -7 5" transform="translate(660,40)"></path><path fill="none" stroke="black" d="M 6 -9 L 5 -11 L 2 -12 L 0 -12 L -3 -11 L -5 -8 L -6 -3 L -6 2 L -5 6 L -3 8 L 0 9 L 1 9 L 4 8 L 6 6 L 7 3 L 7 2 L 6 -1 L 4 -3 L 1 -4 L 0 -4 L -3 -3 L -5 -1 L -6 2" transform="translate(690,40)"></path><path fill="none" stroke="black" d="M 7 -12 L -3 9 M -7 -12 L 7 -12" transform="translate(720,40)"></path><path fill="none" stroke="black" d="M -2 -12 L -5 -11 L -6 -9 L -6 -7 L -5 -5 L -3 -4 L 1 -3 L 4 -2 L 6 0 L 7 2 L 7 5 L 6 7 L 5 8 L 2 9 L -2 9 L -5 8 L -6 7 L -7 5 L -7 2 L -6 0 L -4 -2 L -1 -3 L 3 -4 L 5 -5 L 6 -7 L 6 -9 L 5 -11 L 2 -12 L -2 -12" transform="translate(750,40)"></path><path fill="none" stroke="black" d="M 6 -5 L 5 -2 L 3 0 L 0 1 L -1 1 L -4 0 L -6 -2 L -7 -5 L -7 -6 L -6 -9 L -4 -11 L -1 -12 L 0 -12 L 3 -11 L 5 -9 L 6 -5 L 6 0 L 5 5 L 3 8 L 0 9 L -2 9 L -5 8 L -6 6" transform="translate(30,80)"></path><path fill="none" stroke="black" d="M 0 -5 L -1 -4 L 0 -3 L 1 -4 L 0 -5 M 0 7 L -1 8 L 0 9 L 1 8 L 0 7" transform="translate(60,80)"></path><path fill="none" stroke="black" d="M 0 -5 L -1 -4 L 0 -3 L 1 -4 L 0 -5 M 1 8 L 0 9 L -1 8 L 0 7 L 1 8 L 1 10 L 0 12 L -1 13" transform="translate(90,80)"></path><path fill="none" stroke="black" d="M 8 -9 L -8 0 L 8 9" transform="translate(120,80)"></path><path fill="none" stroke="black" d="M -9 -3 L 9 -3 M -9 3 L 9 3" transform="translate(150,80)"></path><path fill="none" stroke="black" d="M -8 -9 L 8 0 L -8 9" transform="translate(180,80)"></path><path fill="none" stroke="black" d="M -6 -7 L -6 -8 L -5 -10 L -4 -11 L -2 -12 L 2 -12 L 4 -11 L 5 -10 L 6 -8 L 6 -6 L 5 -4 L 4 -3 L 0 -1 L 0 2 M 0 7 L -1 8 L 0 9 L 1 8 L 0 7" transform="translate(210,80)"></path><path fill="none" stroke="black" d="M 5 -4 L 4 -6 L 2 -7 L -1 -7 L -3 -6 L -4 -5 L -5 -2 L -5 1 L -4 3 L -2 4 L 1 4 L 3 3 L 4 1 M -1 -7 L -3 -5 L -4 -2 L -4 1 L -3 3 L -2 4 M 5 -7 L 4 1 L 4 3 L 6 4 L 8 4 L 10 2 L 11 -1 L 11 -3 L 10 -6 L 9 -8 L 7 -10 L 5 -11 L 2 -12 L -1 -12 L -4 -11 L -6 -10 L -8 -8 L -9 -6 L -10 -3 L -10 0 L -9 3 L -8 5 L -6 7 L -4 8 L -1 9 L 2 9 L 5 8 L 7 7 L 8 6 M 6 -7 L 5 1 L 5 3 L 6 4" transform="translate(240,80)"></path><path fill="none" stroke="black" d="M 0 -12 L -8 9 M 0 -12 L 8 9 M -5 2 L 5 2" transform="translate(270,80)"></path><path fill="none" stroke="black" d="M -7 -12 L -7 9 M -7 -12 L 2 -12 L 5 -11 L 6 -10 L 7 -8 L 7 -6 L 6 -4 L 5 -3 L 2 -2 M -7 -2 L 2 -2 L 5 -1 L 6 0 L 7 2 L 7 5 L 6 7 L 5 8 L 2 9 L -7 9" transform="translate(300,80)"></path><path fill="none" stroke="black" d="M 8 -7 L 7 -9 L 5 -11 L 3 -12 L -1 -12 L -3 -11 L -5 -9 L -6 -7 L -7 -4 L -7 1 L -6 4 L -5 6 L -3 8 L -1 9 L 3 9 L 5 8 L 7 6 L 8 4" transform="translate(330,80)"></path><path fill="none" stroke="black" d="M -7 -12 L -7 9 M -7 -12 L 0 -12 L 3 -11 L 5 -9 L 6 -7 L 7 -4 L 7 1 L 6 4 L 5 6 L 3 8 L 0 9 L -7 9" transform="translate(360,80)"></path><path fill="none" stroke="black" d="M -6 -12 L -6 9 M -6 -12 L 7 -12 M -6 -2 L 2 -2 M -6 9 L 7 9" transform="translate(390,80)"></path><path fill="none" stroke="black" d="M -6 -12 L -6 9 M -6 -12 L 7 -12 M -6 -2 L 2 -2" transform="translate(420,80)"></path><path fill="none" stroke="black" d="M 8 -7 L 7 -9 L 5 -11 L 3 -12 L -1 -12 L -3 -11 L -5 -9 L -6 -7 L -7 -4 L -7 1 L -6 4 L -5 6 L -3 8 L -1 9 L 3 9 L 5 8 L 7 6 L 8 4 L 8 1 M 3 1 L 8 1" transform="translate(450,80)"></path><path fill="none" stroke="black" d="M -7 -12 L -7 9 M 7 -12 L 7 9 M -7 -2 L 7 -2" transform="translate(480,80)"></path><path fill="none" stroke="black" d="M 0 -12 L 0 9" transform="translate(510,80)"></path><path fill="none" stroke="black" d="M 4 -12 L 4 4 L 3 7 L 2 8 L 0 9 L -2 9 L -4 8 L -5 7 L -6 4 L -6 2" transform="translate(540,80)"></path><path fill="none" stroke="black" d="M -7 -12 L -7 9 M 7 -12 L -7 2 M -2 -3 L 7 9" transform="translate(570,80)"></path><path fill="none" stroke="black" d="M -6 -12 L -6 9 M -6 9 L 6 9" transform="translate(600,80)"></path><path fill="none" stroke="black" d="M -8 -12 L -8 9 M -8 -12 L 0 9 M 8 -12 L 0 9 M 8 -12 L 8 9" transform="translate(630,80)"></path><path fill="none" stroke="black" d="M -7 -12 L -7 9 M -7 -12 L 7 9 M 7 -12 L 7 9" transform="translate(660,80)"></path><path fill="none" stroke="black" d="M -2 -12 L -4 -11 L -6 -9 L -7 -7 L -8 -4 L -8 1 L -7 4 L -6 6 L -4 8 L -2 9 L 2 9 L 4 8 L 6 6 L 7 4 L 8 1 L 8 -4 L 7 -7 L 6 -9 L 4 -11 L 2 -12 L -2 -12" transform="translate(690,80)"></path><path fill="none" stroke="black" d="M -7 -12 L -7 9 M -7 -12 L 2 -12 L 5 -11 L 6 -10 L 7 -8 L 7 -5 L 6 -3 L 5 -2 L 2 -1 L -7 -1" transform="translate(720,80)"></path><path fill="none" stroke="black" d="M -2 -12 L -4 -11 L -6 -9 L -7 -7 L -8 -4 L -8 1 L -7 4 L -6 6 L -4 8 L -2 9 L 2 9 L 4 8 L 6 6 L 7 4 L 8 1 L 8 -4 L 7 -7 L 6 -9 L 4 -11 L 2 -12 L -2 -12 M 1 5 L 7 11" transform="translate(750,80)"></path><path fill="none" stroke="black" d="M -7 -12 L -7 9 M -7 -12 L 2 -12 L 5 -11 L 6 -10 L 7 -8 L 7 -6 L 6 -4 L 5 -3 L 2 -2 L -7 -2 M 0 -2 L 7 9" transform="translate(30,120)"></path><path fill="none" stroke="black" d="M 7 -9 L 5 -11 L 2 -12 L -2 -12 L -5 -11 L -7 -9 L -7 -7 L -6 -5 L -5 -4 L -3 -3 L 3 -1 L 5 0 L 6 1 L 7 3 L 7 6 L 5 8 L 2 9 L -2 9 L -5 8 L -7 6" transform="translate(60,120)"></path><path fill="none" stroke="black" d="M 0 -12 L 0 9 M -7 -12 L 7 -12" transform="translate(90,120)"></path><path fill="none" stroke="black" d="M -7 -12 L -7 3 L -6 6 L -4 8 L -1 9 L 1 9 L 4 8 L 6 6 L 7 3 L 7 -12" transform="translate(120,120)"></path><path fill="none" stroke="black" d="M -8 -12 L 0 9 M 8 -12 L 0 9" transform="translate(150,120)"></path><path fill="none" stroke="black" d="M -10 -12 L -5 9 M 0 -12 L -5 9 M 0 -12 L 5 9 M 10 -12 L 5 9" transform="translate(180,120)"></path><path fill="none" stroke="black" d="M -7 -12 L 7 9 M 7 -12 L -7 9" transform="translate(210,120)"></path><path fill="none" stroke="black" d="M -8 -12 L 0 -2 L 0 9 M 8 -12 L 0 -2" transform="translate(240,120)"></path><path fill="none" stroke="black" d="M 7 -12 L -7 9 M -7 -12 L 7 -12 M -7 9 L 7 9" transform="translate(270,120)"></path><path fill="none" stroke="black" d="M -3 -16 L -3 16 M -2 -16 L -2 16 M -3 -16 L 4 -16 M -3 16 L 4 16" transform="translate(300,120)"></path><path fill="none" stroke="black" d="M -7 -12 L 7 12" transform="translate(330,120)"></path><path fill="none" stroke="black" d="M 2 -16 L 2 16 M 3 -16 L 3 16 M -4 -16 L 3 -16 M -4 16 L 3 16" transform="translate(360,120)"></path><path fill="none" stroke="black" d="M -2 -6 L 0 -9 L 2 -6 M -5 -3 L 0 -8 L 5 -3 M 0 -8 L 0 9" transform="translate(390,120)"></path><path fill="none" stroke="black" d="M -8 11 L 8 11" transform="translate(420,120)"></path><path fill="none" stroke="black" d="M 1 -12 L 0 -11 L -1 -9 L -1 -7 L 0 -6 L 1 -7 L 0 -8" transform="translate(450,120)"></path><path fill="none" stroke="black" d="M 6 -5 L 6 9 M 6 -2 L 4 -4 L 2 -5 L -1 -5 L -3 -4 L -5 -2 L -6 1 L -6 3 L -5 6 L -3 8 L -1 9 L 2 9 L 4 8 L 6 6" transform="translate(480,120)"></path><path fill="none" stroke="black" d="M -6 -12 L -6 9 M -6 -2 L -4 -4 L -2 -5 L 1 -5 L 3 -4 L 5 -2 L 6 1 L 6 3 L 5 6 L 3 8 L 1 9 L -2 9 L -4 8 L -6 6" transform="translate(510,120)"></path><path fill="none" stroke="black" d="M 6 -2 L 4 -4 L 2 -5 L -1 -5 L -3 -4 L -5 -2 L -6 1 L -6 3 L -5 6 L -3 8 L -1 9 L 2 9 L 4 8 L 6 6" transform="translate(540,120)"></path><path fill="none" stroke="black" d="M 6 -12 L 6 9 M 6 -2 L 4 -4 L 2 -5 L -1 -5 L -3 -4 L -5 -2 L -6 1 L -6 3 L -5 6 L -3 8 L -1 9 L 2 9 L 4 8 L 6 6" transform="translate(570,120)"></path><path fill="none" stroke="black" d="M -6 1 L 6 1 L 6 -1 L 5 -3 L 4 -4 L 2 -5 L -1 -5 L -3 -4 L -5 -2 L -6 1 L -6 3 L -5 6 L -3 8 L -1 9 L 2 9 L 4 8 L 6 6" transform="translate(600,120)"></path><path fill="none" stroke="black" d="M 5 -12 L 3 -12 L 1 -11 L 0 -8 L 0 9 M -3 -5 L 4 -5" transform="translate(630,120)"></path><path fill="none" stroke="black" d="M 6 -5 L 6 11 L 5 14 L 4 15 L 2 16 L -1 16 L -3 15 M 6 -2 L 4 -4 L 2 -5 L -1 -5 L -3 -4 L -5 -2 L -6 1 L -6 3 L -5 6 L -3 8 L -1 9 L 2 9 L 4 8 L 6 6" transform="translate(660,120)"></path><path fill="none" stroke="black" d="M -5 -12 L -5 9 M -5 -1 L -2 -4 L 0 -5 L 3 -5 L 5 -4 L 6 -1 L 6 9" transform="translate(690,120)"></path><path fill="none" stroke="black" d="M -1 -12 L 0 -11 L 1 -12 L 0 -13 L -1 -12 M 0 -5 L 0 9" transform="translate(720,120)"></path><path fill="none" stroke="black" d="M 0 -12 L 1 -11 L 2 -12 L 1 -13 L 0 -12 M 1 -5 L 1 12 L 0 15 L -2 16 L -4 16" transform="translate(750,120)"></path><path fill="none" stroke="black" d="M -5 -12 L -5 9 M 5 -5 L -5 5 M -1 1 L 6 9" transform="translate(30,160)"></path><path fill="none" stroke="black" d="M 0 -12 L 0 9" transform="translate(60,160)"></path><path fill="none" stroke="black" d="M -11 -5 L -11 9 M -11 -1 L -8 -4 L -6 -5 L -3 -5 L -1 -4 L 0 -1 L 0 9 M 0 -1 L 3 -4 L 5 -5 L 8 -5 L 10 -4 L 11 -1 L 11 9" transform="translate(90,160)"></path><path fill="none" stroke="black" d="M -5 -5 L -5 9 M -5 -1 L -2 -4 L 0 -5 L 3 -5 L 5 -4 L 6 -1 L 6 9" transform="translate(120,160)"></path><path fill="none" stroke="black" d="M -1 -5 L -3 -4 L -5 -2 L -6 1 L -6 3 L -5 6 L -3 8 L -1 9 L 2 9 L 4 8 L 6 6 L 7 3 L 7 1 L 6 -2 L 4 -4 L 2 -5 L -1 -5" transform="translate(150,160)"></path><path fill="none" stroke="black" d="M -6 -5 L -6 16 M -6 -2 L -4 -4 L -2 -5 L 1 -5 L 3 -4 L 5 -2 L 6 1 L 6 3 L 5 6 L 3 8 L 1 9 L -2 9 L -4 8 L -6 6" transform="translate(180,160)"></path><path fill="none" stroke="black" d="M 6 -5 L 6 16 M 6 -2 L 4 -4 L 2 -5 L -1 -5 L -3 -4 L -5 -2 L -6 1 L -6 3 L -5 6 L -3 8 L -1 9 L 2 9 L 4 8 L 6 6" transform="translate(210,160)"></path><path fill="none" stroke="black" d="M -3 -5 L -3 9 M -3 1 L -2 -2 L 0 -4 L 2 -5 L 5 -5" transform="translate(240,160)"></path><path fill="none" stroke="black" d="M 6 -2 L 5 -4 L 2 -5 L -1 -5 L -4 -4 L -5 -2 L -4 0 L -2 1 L 3 2 L 5 3 L 6 5 L 6 6 L 5 8 L 2 9 L -1 9 L -4 8 L -5 6" transform="translate(270,160)"></path><path fill="none" stroke="black" d="M 0 -12 L 0 5 L 1 8 L 3 9 L 5 9 M -3 -5 L 4 -5" transform="translate(300,160)"></path><path fill="none" stroke="black" d="M -5 -5 L -5 5 L -4 8 L -2 9 L 1 9 L 3 8 L 6 5 M 6 -5 L 6 9" transform="translate(330,160)"></path><path fill="none" stroke="black" d="M -6 -5 L 0 9 M 6 -5 L 0 9" transform="translate(360,160)"></path><path fill="none" stroke="black" d="M -8 -5 L -4 9 M 0 -5 L -4 9 M 0 -5 L 4 9 M 8 -5 L 4 9" transform="translate(390,160)"></path><path fill="none" stroke="black" d="M -5 -5 L 6 9 M 6 -5 L -5 9" transform="translate(420,160)"></path><path fill="none" stroke="black" d="M -6 -5 L 0 9 M 6 -5 L 0 9 L -2 13 L -4 15 L -6 16 L -7 16" transform="translate(450,160)"></path><path fill="none" stroke="black" d="M 6 -5 L -5 9 M -5 -5 L 6 -5 M -5 9 L 6 9" transform="translate(480,160)"></path><path fill="none" stroke="black" d="M 2 -16 L 0 -15 L -1 -14 L -2 -12 L -2 -10 L -1 -8 L 0 -7 L 1 -5 L 1 -3 L -1 -1 M 0 -15 L -1 -13 L -1 -11 L 0 -9 L 1 -8 L 2 -6 L 2 -4 L 1 -2 L -3 0 L 1 2 L 2 4 L 2 6 L 1 8 L 0 9 L -1 11 L -1 13 L 0 15 M -1 1 L 1 3 L 1 5 L 0 7 L -1 8 L -2 10 L -2 12 L -1 14 L 0 15 L 2 16" transform="translate(510,160)"></path><path fill="none" stroke="black" d="M 0 -16 L 0 16" transform="translate(540,160)"></path><path fill="none" stroke="black" d="M -2 -16 L 0 -15 L 1 -14 L 2 -12 L 2 -10 L 1 -8 L 0 -7 L -1 -5 L -1 -3 L 1 -1 M 0 -15 L 1 -13 L 1 -11 L 0 -9 L -1 -8 L -2 -6 L -2 -4 L -1 -2 L 3 0 L -1 2 L -2 4 L -2 6 L -1 8 L 0 9 L 1 11 L 1 13 L 0 15 M 1 1 L -1 3 L -1 5 L 0 7 L 1 8 L 2 10 L 2 12 L 1 14 L 0 15 L -2 16" transform="translate(570,160)"></path><path fill="none" stroke="black" d="M -9 3 L -9 1 L -8 -2 L -6 -3 L -4 -3 L -2 -2 L 2 1 L 4 2 L 6 2 L 8 1 L 9 -1 M -9 1 L -8 -1 L -6 -2 L -4 -2 L -2 -1 L 2 2 L 4 3 L 6 3 L 8 2 L 9 -1 L 9 -3" transform="translate(600,160)"></path><path fill="none" stroke="black" d="M -1 -12 L -3 -11 L -4 -9 L -4 -7 L -3 -5 L -1 -4 L 1 -4 L 3 -5 L 4 -7 L 4 -9 L 3 -11 L 1 -12 L -1 -12" transform="translate(630,160)"></path></svg>